<?xml version="1.0" encoding="UTF-8" standalone="no"?>
<!-- Created with Inkscape (http://www.inkscape.org/) -->

<svg
   xmlns:dc="http://purl.org/dc/elements/1.1/"
   xmlns:cc="http://creativecommons.org/ns#"
   xmlns:rdf="http://www.w3.org/1999/02/22-rdf-syntax-ns#"
   xmlns:svg="http://www.w3.org/2000/svg"
   xmlns="http://www.w3.org/2000/svg"
   xmlns:sodipodi="http://sodipodi.sourceforge.net/DTD/sodipodi-0.dtd"
   xmlns:inkscape="http://www.inkscape.org/namespaces/inkscape"
   version="1.1"
   id="svg3713"
   xml:space="preserve"
   width="682.66669"
   height="682.66669"
   viewBox="0 0 682.66669 682.66669"
   sodipodi:docname="redbubble.svg"
   inkscape:version="0.92.3 (2405546, 2018-03-11)"><metadata
     id="metadata3719"><rdf:RDF><cc:Work
         rdf:about=""><dc:format>image/svg+xml</dc:format><dc:type
           rdf:resource="http://purl.org/dc/dcmitype/StillImage" /><dc:title></dc:title></cc:Work></rdf:RDF></metadata><defs
     id="defs3717"><clipPath
       clipPathUnits="userSpaceOnUse"
       id="clipPath3731"><path
         d="M 0,512 H 512 V 0 H 0 Z"
         id="path3729"
         inkscape:connector-curvature="0" /></clipPath><clipPath
       clipPathUnits="userSpaceOnUse"
       id="clipPath3747"><path
         d="m 219.689,304.558 v 0 0 z"
         id="path3745"
         inkscape:connector-curvature="0" /></clipPath></defs><sodipodi:namedview
     pagecolor="#ffffff"
     bordercolor="#666666"
     borderopacity="1"
     objecttolerance="10"
     gridtolerance="10"
     guidetolerance="10"
     inkscape:pageopacity="0"
     inkscape:pageshadow="2"
     inkscape:window-width="2400"
     inkscape:window-height="1284"
     id="namedview3715"
     showgrid="false"
     inkscape:zoom="1.5981445"
     inkscape:cx="341.33334"
     inkscape:cy="341.33334"
     inkscape:window-x="-9"
     inkscape:window-y="-9"
     inkscape:window-maximized="1"
     inkscape:current-layer="g3721" /><g
     id="g3721"
     inkscape:groupmode="layer"
     inkscape:label="redbubble"
     transform="matrix(1.3333333,0,0,-1.3333333,0,682.66667)"><path
       d="M 0,0 H 512 V 512 H 0 Z"
       style="fill:#fc0000;fill-opacity:1;fill-rule:nonzero;stroke:none"
       id="path3723"
       inkscape:connector-curvature="0" /><g
       id="g3725"><g
         id="g3727"
         clip-path="url(#clipPath3731)"><g
           id="g3733"
           transform="translate(237.2651,278.9902)"><path
             d="m 0,0 c 0.051,-0.833 -0.724,-1.514 -0.434,-2.392 -0.361,-0.114 -0.479,-0.387 -0.543,-0.739 -1.44,-8.047 -4.63,-15.367 -9.188,-22.118 l -0.018,-0.037 c -0.129,-0.211 -0.257,-0.42 -0.386,-0.629 l 0.04,0.052 c -2.152,-2.362 -4.302,-4.722 -6.453,-7.083 h 0.002 c -1.034,-0.429 -1.843,-1.129 -2.486,-2.033 l 0.009,0.01 c -3.657,-2.251 -7.173,-4.76 -11.214,-6.324 -1.545,-0.599 -0.434,-1.251 -0.022,-1.793 4.069,-5.353 8.122,-10.721 12.266,-16.015 2.293,-2.928 4.173,-6.2 7.055,-8.647 0.017,-0.139 0.094,-0.226 0.227,-0.261 1.557,-2.266 3.026,-4.599 4.684,-6.792 6.624,-8.736 13.305,-17.433 19.967,-26.139 3.967,-5.185 3.4,-8.634 -1.988,-12.049 0,0 0.049,0.014 0.048,0.014 -1.163,-0.026 -2.324,-0.078 -3.487,-0.078 -36.708,-0.002 -73.416,-0.004 -110.124,0.005 -9.508,0 -19.019,0.035 -28.529,0.057 0,0 0.073,-0.03 0.072,-0.03 -0.405,0.585 -1.019,0.44 -1.589,0.452 l 0.032,-0.019 c -0.291,0.852 -1.136,1.141 -1.723,1.692 l -0.052,0.08 c -0.235,0.265 -0.469,0.533 -0.702,0.798 l 0.037,-0.038 c -0.618,1.73 -0.987,3.488 -0.986,5.346 0.016,53.288 0.014,106.576 0.014,159.866 0,2.663 -0.096,5.329 0.434,7.965 l -0.023,-0.033 c 0.486,0.188 0.526,0.6 0.523,1.037 l -0.026,-0.038 c 0.542,0.592 1.084,1.184 1.627,1.777 l 0.066,0.066 c 1.798,1.002 3.724,1.19 5.765,1.187 21.668,-0.044 43.337,-0.023 65.007,-0.035 6.435,-0.002 12.769,-0.866 19.047,-2.255 8.394,-1.859 15.977,-5.508 23.069,-10.272 l -0.012,0.016 c 0.835,-1.041 1.814,-1.914 3.021,-2.51 l -0.012,0.016 c 0.715,-1.07 1.651,-1.915 2.681,-2.668 0,0 0.165,-0.167 0.166,-0.167 C -2.566,36.297 0.96,20.855 0.017,3.98 -0.057,2.677 -1.184,1.316 0,0"
             style="fill:#fefdfd;fill-opacity:1;fill-rule:evenodd;stroke:none"
             id="path3735"
             inkscape:connector-curvature="0" /></g><g
           id="g3737"
           transform="translate(410.1328,211.4014)"><path
             d="m 0,0 c -0.221,-1.117 -0.437,-2.233 -0.654,-3.351 -1.366,-4.925 -2.758,-9.809 -5.244,-14.355 -3.204,-5.853 -7.78,-10.44 -12.711,-14.762 l 0.013,0.02 c -3.121,-1.728 -6.017,-3.828 -9.263,-5.358 -11.204,-5.285 -23.118,-7.467 -35.364,-7.588 -21.355,-0.209 -42.715,-0.07 -64.074,-0.065 -3.367,0 -6.769,-0.333 -10.021,0.932 -0.401,0.373 -0.801,0.746 -1.198,1.119 0.131,0.648 -0.072,1.134 -0.683,1.427 l 0.012,-0.026 c -0.379,1.37 -0.547,2.753 -0.545,4.187 0.017,54.989 0.011,109.978 0.015,164.967 0.002,5.119 2.405,7.529 7.465,7.529 20.777,0.002 41.555,0.079 62.332,-0.026 15.436,-0.078 29.949,-3.14 41.826,-13.973 l -0.015,0.024 c 0.173,-0.179 0.347,-0.355 0.519,-0.533 l -0.027,0.028 c 0.025,-0.324 0.187,-0.511 0.521,-0.532 l -0.029,0.009 c 9.242,-10.875 11.982,-23.726 11.584,-37.593 -0.098,-3.495 -0.922,-6.892 -0.982,-10.375 -0.038,-0.185 -0.079,-0.371 -0.116,-0.556 -1.615,-4.421 -3.103,-8.897 -5.47,-13.003 l 0.011,0.011 c -0.873,-0.864 -1.638,-1.802 -2.031,-2.992 l 0.008,0.002 c -1.998,-1.206 -1.887,-2.067 0.291,-2.999 1.822,-0.779 3.574,-1.788 5.217,-2.903 C -7.609,41.784 -2.463,30.902 -0.537,18.112 0.367,12.081 0.033,6.043 0,0"
             style="fill:#fefdfd;fill-opacity:1;fill-rule:evenodd;stroke:none"
             id="path3739"
             inkscape:connector-curvature="0" /></g><g
           id="g3741"><g
             id="g3743" /><g
             id="g3751"><g
               clip-path="url(#clipPath3747)"
               id="g3749"
               style="opacity:0.10000598" /></g></g></g></g></g></svg>