<?xml version="1.0" encoding="utf-8"?>
<!-- Generator: Adobe Illustrator 19.2.1, SVG Export Plug-In . SVG Version: 6.00 Build 0)  -->
<svg version="1.1" id="superLimitBreak_Logo" xmlns="http://www.w3.org/2000/svg" xmlns:xlink="http://www.w3.org/1999/xlink"
	 x="0px" y="0px" viewBox="0 0 256 290" style="enable-background:new 0 0 256 290;" xml:space="preserve">
<style type="text/css">
	.st0{fill:url(#Flame_1_);stroke:#000000;stroke-width:4;stroke-miterlimit:10;}
	.st1{fill:#C10003;}
	.st2{fill:#FFAF8B;}
	.st3{fill:#FFFFFF;}
</style>
<linearGradient id="Flame_1_" gradientUnits="userSpaceOnUse" x1="128.7215" y1="242.5171" x2="126.2214" y2="12.0171">
	<stop  offset="0" style="stop-color:#FF0700"/>
	<stop  offset="1" style="stop-color:#FFD62A"/>
</linearGradient>
<path id="Flame" class="st0" d="M236.3,181.6c5-14.4,9-29.2,12.2-44.1c-12.2,10-24.4,20.1-36.6,30.1c0.5-3.2,1-6.4,1.5-9.7
	l-14.1,9.3c8.7-20,15.7-40.6,21.2-61.7L186,139.7c1.1-4.3,2-8.8,2.5-13.2l-7.2,4.5c6.9-21.5,13.8-43.1,16.1-65.5
	c-6.6,8.8-13.3,17.6-19.9,26.4L176.6,60l-9.3,18.3c-1.3-16.6-3-33.2-5-49.7c-3.6,10.7-7.2,13.3-10.7,24c-1.7-3.1-3.5-6.2-5.2-9.3
	c-1,2.6-2,5.2-3.1,7.7c-6.2-17.2-9-24.2-15.2-40c-5.4,15.5-8.4,21.2-15.6,40c-1-2.6-2-5.2-3.1-7.7c-1.7,3.1-3.5,6.2-5.2,9.3
	c-3.6-10.7-7.2-13.3-10.7-24c-2,16.5-3.7,33.1-5,49.7c-3-6-6.1-12.2-9.2-18.3l-0.9,31.9c-6.6-8.8-13.3-17.6-19.9-26.4
	c2.3,22.4,9.2,44,16.1,65.5l-7.2-4.5c0.5,4.5,1.4,8.9,2.5,13.2l-34.5-34.2c5.4,21,12.5,41.7,21.2,61.7l-14.1-9.3
	c0.5,3.2,1,6.4,1.5,9.7c-12.2-10-24.4-20.1-36.6-30.1c3.2,14.9,7.3,29.6,12.2,44.1c-5-1.9-10-3.7-14.9-5.6
	c4.9,8.7,20.7,26.1,27,34.1h192.6c6.4-8,22.1-25.3,27-34.1C246.3,177.8,241.3,179.7,236.3,181.6L236.3,181.6z"/>
<path id="Black_Shadows" d="M240.6,199.8c0.5-2.7,2.1-3.8,1.6-7.5c-0.6-4.5-3-4.5-3.2-5.6c-0.2-1,0.9-2.4,0.7-3.8
	c-0.3-2.6-1.8-6.6-10.2-10.1c-4.4-1.8-14.2,3.9-14.2,3.9s-7.4,0.2-7.6,4.8c-0.2,4.6,1.8,12.9,1.8,12.9s-3.1,0.8-4.8,1.7
	c-2.5,1.4-3.2,2-3.2,2s-2-6-3.8-8.9s-7.7-6-7.7-6s1.7-12.4-2.9-21.7c-4.6-9.3-16.4-11.8-16.4-11.8s-4.7-1-8.4-0.6l-3.7,0.4
	c0,0-0.9-1.7-3.6-2.5s-4.3-0.7-4.3-0.7s-0.2-1.2-0.6-2.7c-0.4-1.5-1.4-3.7-1.4-3.7c16.4-1.2,18.4-13.3,18.4-13.3s-1.4,2.4-5.6,2.8
	c-4.5,0.5-6.6-0.5-6.6-0.5c2.5-1.5,6.5-4.7,10.7-11.5c6.7-10.8,1.5-20.3,1.5-20.3s-0.9,5.2-2.9,7.9c-2.2,3.1-7.3,3.6-7.3,3.6
	s7.2-6.6,6.1-18.4c-1.1-11.8-7.3-15.5-7.3-15.5s1.4,5.4,0,10c-0.3,0.9-0.6,1.6-0.9,2.3c-0.1-3.5-0.8-9.7-3.6-17
	c-4.3-11.2-14.4-15.3-14.4-15.3s2.2,2.5,1.9,8.2c-0.3,5.6-4.2,8.3-4.2,8.3s-3.1-4.1-2-11.4s7.6-15.6,7.6-15.6s-6.9,0.9-16.9,11.6
	c-9.1,9.6-9.1,20.4-9.1,20.4s-2.2-4.1-1.8-9.8c0.3-5.6,4.5-11.6,4.5-11.6s-7.2,3-11.5,15s-1.1,20.9-1.1,20.9s-2.6-1.3-4-5.8
	s0-10,0-10s-6.2,3.7-7.3,15.5c-1.1,11.8,6.1,18.4,6.1,18.4s-5.1-0.5-7.3-3.6c-1.9-2.8-2.9-7.9-2.9-7.9s-5.2,9.4,1.5,20.3
	c6.7,10.8,13.1,12.6,13.1,12.6s-0.9,0.4-4.5-0.2s-6.1-2.3-6.1-2.3s2.7,5.7,6.6,8.7c3.4,2.6,7.9,3.7,7.9,3.7l-1,2.5
	c-0.8,2-1,3.9-1,3.9s-1.7-0.2-4.3,0.7s-3.6,2.5-3.6,2.5l-3.7-0.4c-3.7-0.4-8.4,0.6-8.4,0.6s-11.9,2.5-16.4,11.8
	c-4.6,9.3-2.9,21.7-2.9,21.7s-5.8,3.2-7.7,6s-3.8,8.9-3.8,8.9s-0.7-0.6-3.2-2c-1.6-0.9-4.8-1.7-4.8-1.7s2-8.3,1.8-12.9
	c-0.2-4.6-7.6-4.8-7.6-4.8s-9.8-5.7-14.2-3.9c-8.4,3.4-9.9,7.4-10.2,10.1c-0.2,1.4,0.9,2.8,0.7,3.8c-0.2,1-2.6,1-3.2,5.6
	c-0.5,3.7,1.1,4.8,1.6,7.5s-1.6,2.5-1.1,6.1c0.4,2.5,4,4,4,4s4.3,12.3,11.5,19.7s17,11.7,22,13.1c4.9,1.4,8.8,1.8,9.6,2.9
	s1.9-0.8,3.9-2.9c2.1-2.1,11.9-4.8,17.5-9.6c5.5-4.8,7.1-6.9,7.1-6.9l3.7-4.6l2.9,5.8c0,0-4.8,2.5-4,7.8s7,7.1,7,7.1l28.4-0.2
	l28.4,0.2c0,0,6.2-1.7,7-7.1c0.8-5.3-4-7.8-4-7.8l2.9-5.8l3.7,4.6c0,0,1.6,2,7.1,6.9c5.5,4.8,15.4,7.6,17.5,9.6s3.1,3.9,3.9,2.9
	s4.7-1.4,9.6-2.9c4.9-1.4,14.8-5.7,22-13.1c7.2-7.4,11.5-19.7,11.5-19.7s3.6-1.5,4-4C242.2,202.3,240.1,202.5,240.6,199.8z"/>
<g id="higlights_2_">
	<g id="Body_Armour">
		<path id="Right_Upper_Arm" class="st1" d="M193.8,209.2c0,0-5.6,6.9-6.8,16.4s-0.7,10.1-0.7,10.1s-13.1-6-15.5-18.3
			c-2.3-12.3,0-22,0-22S176.1,212.3,193.8,209.2z"/>
		<path id="Waist" class="st1" d="M99.3,237.9c0,0-13.1-12.8,28.1-13.1c41.3-0.3,27.4,13.1,27.4,13.1s4.3-8.6-27.6-8.5
			C95.2,229.6,99.3,237.9,99.3,237.9z"/>
		<path id="Middle_Lower_Chest_3" class="st1" d="M106.6,208.6c-1.6-1-0.6-5.6,0.4-6.3s2.4-1.6,7.9,1.4c5.5,3.1,20.2,0.8,24.6,1.3
			s6.8,1.5,6.8,2.5s-10.7,1.5-21.2,1.5S108.4,209.8,106.6,208.6L106.6,208.6z"/>
		<path id="Middle_Lower_Chest_2" class="st1" d="M107,214.5c0,2,2.8,1.2,7.9,0.8c5.1-0.5,15.8-1.4,23.3-0.8s9.6,1.4,11.1-0.1
			s0.5-3-4.2-3.6s-11.6,0.2-17,0.3C122.6,211.2,106.9,210.1,107,214.5L107,214.5z"/>
		<path id="Middle_Lower_Chest_1" class="st1" d="M109.8,219.8c-0.3,1.5,4.7,1.3,10.2,0.6s17.5,0.2,22.2,0.5s5.9,0.1,6-1.1
			c0.1-1.2-6.7-2.3-14.8-2.3C125.3,217.6,110.4,216.5,109.8,219.8z"/>
		<path id="Left_Lower_Chest" class="st1" d="M90.9,197.8c-0.6-2.1-0.5,8.3,2.3,12.7s11.4,12.4,11.4,12.4s-3.9-10.6-4.4-13.7
			s-0.6-3.4-2.7-4.4C95.2,203.7,91.8,200.8,90.9,197.8z"/>
		<path id="Right_Lower_Chest" class="st1" d="M165.1,197.8c0.6-2.1,0.5,8.3-2.3,12.7s-11.4,12.4-11.4,12.4s3.9-10.6,4.4-13.7
			s0.6-3.4,2.7-4.4C160.7,203.7,164.2,200.8,165.1,197.8z"/>
		<path id="Left_Upper_Chest" class="st1" d="M90.7,159.8c-1,0.2-3.7,22.7-3.1,25.6c0.6,2.9,11,13.5,13.5,14.1s21.3-2.6,23.1-4.1
			s2.8-25.8,2.1-26.8c-0.7-1-5.5,0-19.3-3C98.6,163.7,92.6,159.5,90.7,159.8z"/>
		<path id="Right_Upper_Chest" class="st1" d="M165.3,159.8c1,0.2,3.7,22.7,3.1,25.6c-0.6,2.9-11,13.5-13.5,14.1s-21.3-2.6-23.1-4.1
			s-2.8-25.8-2.1-26.8s5.5,0,19.3-3C157.3,163.7,163.4,159.5,165.3,159.8z"/>
		<path id="Left_Forearm" class="st1" d="M24.9,214.2c0,0,4.2,3.1,9.7,2.9c5.5-0.2,7.5-4.9,11.6-4.5s7.5,2,8.7,3.7
			c1.3,1.7,4.1,5.7,4.7,12.3c0.4,4.1,1,9.3,0.1,10s-12.5-1.7-19.5-5.8C33.2,228.5,26,219.8,24.9,214.2L24.9,214.2z"/>
		<path id="Left_Upper_Arm" class="st1" d="M61.2,209.2c0,0,5.6,6.9,6.8,16.4c1.2,9.5,0.7,10.1,0.7,10.1s13.1-6,15.5-18.3
			c2.3-12.3,0-22,0-22S78.8,212.3,61.2,209.2z"/>
		<path id="Left_Shoulder" class="st1" d="M69.4,182.6c0,0,0-7.2,4.6-10.7c5-3.8,10.2-2.7,10.2-2.7l-2.1,10.5
			C82.1,179.7,73.7,177.6,69.4,182.6z"/>
		<path id="Right_Forearm" class="st1" d="M230.1,214.2c0,0-4.2,3.1-9.7,2.9c-5.5-0.2-7.5-4.9-11.6-4.5s-7.5,2-8.7,3.7
			c-1.3,1.7-4.1,5.7-4.7,12.3c-0.4,4.1-1,9.3-0.1,10s12.5-1.7,19.5-5.8C221.8,228.5,228.9,219.8,230.1,214.2L230.1,214.2z"/>
		<path id="Right_Shoulder" class="st1" d="M185.6,182.6c0,0,0-7.2-4.6-10.7c-5-3.8-10.2-2.7-10.2-2.7l2.1,10.5
			C172.8,179.7,181.3,177.6,185.6,182.6z"/>
		<path id="Left_Neck" class="st1" d="M113.8,141.4c0,0-0.2,3.4-1.5,6.6c-0.7,1.8-1.2,3-1,3.5s1.6,0.5,4.9,2.5s3.4,2.8,3.8,2.8
			c0.3,0-0.4-2.1-1.7-4.1c-0.6-0.9-2.8-3.2-3.3-5.3S114.3,141.9,113.8,141.4z"/>
		<path id="Right_Neck" class="st1" d="M142.2,141.4c0,0,0.2,3.4,1.5,6.6c0.7,1.8,1.2,3,1,3.5s-1.6,0.5-4.9,2.5
			c-3.3,2-3.4,2.8-3.8,2.8s0.4-2.1,1.7-4.1c0.6-0.9,2.8-3.2,3.3-5.3C141.5,145.4,141.7,141.9,142.2,141.4z"/>
	</g>
	<g id="Skin_Areas">
		<path id="Face" class="st2" d="M144.7,112.4c-0.3-2.9-0.7-4.6-1.9-6c-1.2-1.3-8.6-8.7-10.1-9.4s-7.7-1-7.7-1s-3.7,0.3-5.2,1
			c-1.4,0.7-6.4,8.1-7.6,9.4s-1.7,3.1-2,6s0.2,15.2,0.4,17.7c0.2,2.5,1.2,4.2,2.2,6c1.1,1.7,6.2,8.2,7.2,9s1,1,5,1
			c8,0,6.6-0.2,7.6-1c0.9-0.8,7.4-7.2,8.5-9c1.1-1.7,2.7-3.5,2.9-6S145,115.2,144.7,112.4z"/>
		<path id="Left_Ear" class="st2" d="M108.2,120.8c-0.4-0.3-4.1,1-4.2,2.8s2,3.3,3.1,3.9s1.6,0.3,1.7,0.2S108.8,121.4,108.2,120.8z"
			/>
		<path id="Right_Ear" class="st2" d="M147.4,120.8c0.4-0.3,4.1,1,4.2,2.8c0.1,1.8-2,3.3-3.1,3.9s-1.6,0.3-1.7,0.2
			C146.6,127.6,146.7,121.4,147.4,120.8z"/>
		<path id="Nose" class="st2" d="M124.7,93c0.3,0.8,2.1,0.2,3,0.2s2.6,0.6,3.1-0.1s-1.1-2.5-1.7-3.2s-1.1-1-1.5-1
			C127.1,88.9,124,91.4,124.7,93z"/>
		<path id="Left_Fist" class="st2" d="M37.4,179.7c2.2,3.8-1.2,4.7-1.3,5.8s0.9,3.6-0.5,6.4c-1.4,2.7-4.4,3.7-4.6,5.6s2.1,5-0.5,7
			c-2.6,2-4.3,2.6-7,2.2c-1.5-0.2-4.8,0-4.8-3.6c0-2.3,2.2-3.5,2-5.6s-1.7-6.4,0.9-8.4c1.5-1.1,3.5-1.9,3.6-3.6
			c0.2-3-1.5-1.9-0.5-4.8c1-3,2.1-4.5,6.8-4.4S36.7,178.5,37.4,179.7L37.4,179.7z"/>
		<path id="Left_Thumb" class="st2" d="M42.5,180.5c1-1.5,3.5,1.4,2.7,4.5s-2.3,4.9-3.5,4.5S39.2,185.2,42.5,180.5z"/>
		<path id="Right_Thumb" class="st2" d="M213.3,180.5c-1-1.5-3.5,1.4-2.7,4.5s2.3,4.9,3.5,4.5S216.5,185.2,213.3,180.5z"/>
		<path id="Right_Fist" class="st2" d="M218.4,179.7c-2.2,3.8,1.2,4.7,1.3,5.8s-0.9,3.6,0.5,6.4c1.4,2.7,4.4,3.7,4.6,5.6
			c0.2,1.9-2.1,5,0.5,7c2.6,2.1,4.3,2.6,7,2.2c1.5-0.2,4.8,0,4.8-3.6c0-2.3-2.2-3.5-2-5.6s1.7-6.4-0.9-8.4c-1.5-1.1-3.5-1.9-3.6-3.6
			c-0.2-3,1.5-1.9,0.5-4.8c-1-3-2.1-4.5-6.8-4.4C219.5,176.4,219.1,178.5,218.4,179.7L218.4,179.7z"/>
	</g>
	<path id="Open_Mouth" d="M127.6,99.3c0,0-4.2-0.1-5.3,0.7c-1.1,0.8-4.2,2.8-5.1,5.9s-0.2,11.5-0.1,15s-0.3,11.8,1.3,14.7
		c1.6,2.8,3.4,3.5,4.1,3.4s3-1.4,4.5-1.4c2,0,5.5,1.2,7,1.1c1.5-0.2,3.3-1,3.8-2.1c0.6-1.1,1.3-6.3,1.3-11.9s1.4-14.4,0.5-17.2
		s-2.7-4.6-4.7-6.3S132,99.4,127.6,99.3L127.6,99.3z"/>
	<g id="Teeth">
		<path id="Upper_Teeth" class="st3" d="M119.2,113.8c-0.6,0-0.9-0.3-0.8-3.2c0.2-2.9,2.4-8.1,7.4-8.2c5-0.2,7.5,0.5,9.7,2.9
			c2.3,2.4,2.3,4.2,2.4,5.2c0.1,1,0.1,3.5-0.8,3.5s-1.7-1-3.2-3.8c-1.5-2.9-4.4-3-6.4-3s-4.6,0.8-5.7,2.6
			C120.6,111.6,120.5,113.9,119.2,113.8z"/>
		<path id="Lower_Teeth" class="st3" d="M120.1,130.4c0.8-0.4,1.1,0.4,2,0.9c0.8,0.5,2.7-0.1,5.1,0s4.4,0.9,5.5,0.6
			c1.1-0.3,1.9-2,3-1.6s0.4,2.8,0.3,3.8c-0.2,1.2-1.5,2.2-2.6,2.1c-0.9-0.1-3.5-1.1-6.1-1.1c-2.6-0.1-3.5,1.3-4.8,1.1
			c-1.3-0.1-2.2-1.2-2.4-2.3C119.8,132.8,119.4,130.7,120.1,130.4L120.1,130.4z"/>
	</g>
</g>
<g id="Text">
	<g id="superLimitBreak">
		<path class="st3" d="M23,261.7v-3.8h1.9v3.8H23z M23,267.3v-1.9h1.9v1.9H23z M24.9,257.9V256h9.4v1.9H24.9z M24.9,263.5v-1.9h9.4
			v1.9H24.9z M24.9,269.2v-1.9h9.4v1.9H24.9z M34.3,259.8v-1.9h1.9v1.9H34.3z M34.3,267.3v-3.8h1.9v3.8H34.3z"/>
		<path class="st3" d="M38,265.4V256h1.9v9.4H38z M39.9,267.3v-1.9h1.9v1.9H39.9z M41.8,269.2v-1.9h5.6v1.9H41.8z M49.3,269.2v-1.9
			h-1.9v-1.9h1.9V256h1.9v13.1H49.3z"/>
		<path class="st3" d="M53,272.9V256h1.9v1.9h1.9v1.9h-1.9v5.6h1.9v1.9h-1.9v5.6H53z M56.8,257.9V256h5.6v1.9H56.8z M56.8,269.2
			v-1.9h5.6v1.9H56.8z M62.4,259.8v-1.9h1.9v1.9H62.4z M62.4,267.3v-1.9h1.9v1.9H62.4z M64.3,265.4v-5.6h1.9v5.6H64.3z"/>
		<path class="st3" d="M68,265.4v-5.6h1.9v1.9h9.4v-1.9h1.9v3.8H69.9v1.9H68z M69.9,259.8v-1.9h1.9v1.9H69.9z M69.9,267.3v-1.9h1.9
			v1.9H69.9z M71.8,257.9V256h5.6v1.9H71.8z M71.8,269.2v-1.9h5.6v1.9H71.8z M77.4,259.8v-1.9h1.9v1.9H77.4z M77.4,267.3v-1.9h1.9
			v1.9H77.4z"/>
		<path class="st3" d="M83,269.2V256h1.9v1.9h1.9v1.9h-1.9v9.4H83z M86.8,257.9V256h5.6v1.9H86.8z M92.4,259.8v-1.9h1.9v1.9H92.4z
			 M94.3,261.7v-1.9h1.9v1.9H94.3z"/>
		<path class="st3" d="M98,269.2v-16.9h1.9v15h11.3v1.9H98z"/>
		<path class="st3" d="M114.9,269.2v-1.9h3.8v-7.5h-3.8v-1.9h5.6v9.4h3.8v1.9H114.9z M118.7,254.2v-1.9h1.9v1.9H118.7z"/>
		<path class="st3" d="M128,269.2V256h5.6v1.9h-3.8v11.3H128z M133.7,269.2v-11.3h1.9v11.3H133.7z M135.5,257.9V256h3.8v1.9H135.5z
			 M139.3,269.2v-11.3h1.9v11.3H139.3z"/>
		<path class="st3" d="M144.9,269.2v-1.9h3.8v-7.5h-3.8v-1.9h5.6v9.4h3.8v1.9H144.9z M148.7,254.2v-1.9h1.9v1.9H148.7z"/>
		<path class="st3" d="M161.8,267.3v-9.4H158V256h3.8v-3.8h1.9v3.8h5.6v1.9h-5.6v9.4H161.8z M163.7,269.2v-1.9h5.6v1.9H163.7z
			 M169.3,267.3v-1.9h1.9v1.9H169.3z"/>
		<path class="st3" d="M173,269.2v-16.9h9.4v1.9h-7.5v5.6h7.5v1.9h-7.5v5.6h7.5v1.9H173z M182.4,256v-1.9h1.9v1.9H182.4z
			 M182.4,259.8v-1.9h1.9v1.9H182.4z M182.4,263.5v-1.9h1.9v1.9H182.4z M182.4,267.3v-1.9h1.9v1.9H182.4z M184.3,257.9V256h1.9v1.9
			H184.3z M184.3,265.4v-1.9h1.9v1.9H184.3z"/>
		<path class="st3" d="M188,269.2V256h1.9v1.9h1.9v1.9h-1.9v9.4H188z M191.8,257.9V256h5.6v1.9H191.8z M197.4,259.8v-1.9h1.9v1.9
			H197.4z M199.3,261.7v-1.9h1.9v1.9H199.3z"/>
		<path class="st3" d="M203,265.4v-5.6h1.9v1.9h9.4v-1.9h1.9v3.8h-11.3v1.9H203z M204.9,259.8v-1.9h1.9v1.9H204.9z M204.9,267.3
			v-1.9h1.9v1.9H204.9z M206.8,257.9V256h5.6v1.9H206.8z M206.8,269.2v-1.9h5.6v1.9H206.8z M212.4,259.8v-1.9h1.9v1.9H212.4z
			 M212.4,267.3v-1.9h1.9v1.9H212.4z"/>
		<path class="st3" d="M218,267.3v-3.8h1.9v3.8H218z M219.9,257.9V256h7.5v1.9H219.9z M219.9,269.2v-1.9h9.4v-3.8h-9.4v-1.9h9.4
			v-1.9h1.9v9.4H219.9z M227.4,259.8v-1.9h1.9v1.9H227.4z"/>
		<path class="st3" d="M233,269.2v-16.9h1.9v9.4h1.9v1.9h-1.9v5.6H233z M236.8,261.7v-1.9h3.8v1.9H236.8z M236.8,265.4v-1.9h3.8v1.9
			H236.8z M240.5,259.8v-1.9h3.8v1.9H240.5z M240.5,267.3v-1.9h3.8v1.9H240.5z M244.3,257.9V256h1.9v1.9H244.3z M244.3,269.2v-1.9
			h1.9v1.9H244.3z"/>
	</g>
	<g id="_x3E_">
		<path class="st3" d="M9.7,269.2v-2h2v-2h2v-2h2v-2h-2v-2h-2v-2h-2v-2h4v2h2v2h2v2h2v2h-2v2h-2v2h-2v2H9.7z"/>
	</g>
</g>
</svg>
